<?xml version="1.0" encoding="UTF-8" standalone="no"?>
<svg
   xmlns:dc="http://purl.org/dc/elements/1.1/"
   xmlns:cc="http://creativecommons.org/ns#"
   xmlns:rdf="http://www.w3.org/1999/02/22-rdf-syntax-ns#"
   xmlns:svg="http://www.w3.org/2000/svg"
   xmlns="http://www.w3.org/2000/svg"
   xmlns:sodipodi="http://sodipodi.sourceforge.net/DTD/sodipodi-0.dtd"
   xmlns:inkscape="http://www.inkscape.org/namespaces/inkscape"
   height="1000"
   version="1.1"
   viewBox="0 0 1000 1000"
   width="1000"
   id="svg3785"
   sodipodi:docname="pause-circle.svg"
   inkscape:version="0.92.3 (2405546, 2018-03-11)">
  <metadata
     id="metadata3789">
    <rdf:RDF>
      <cc:Work
         rdf:about="">
        <dc:format>image/svg+xml</dc:format>
        <dc:type
           rdf:resource="http://purl.org/dc/dcmitype/StillImage" />
        <dc:title></dc:title>
      </cc:Work>
    </rdf:RDF>
  </metadata>
  <sodipodi:namedview
     pagecolor="#ffffff"
     bordercolor="#666666"
     borderopacity="1"
     objecttolerance="10"
     gridtolerance="10"
     guidetolerance="10"
     inkscape:pageopacity="0"
     inkscape:pageshadow="2"
     inkscape:window-width="1920"
     inkscape:window-height="1017"
     id="namedview3787"
     showgrid="false"
     inkscape:zoom="0.36875"
     inkscape:cx="786.26165"
     inkscape:cy="386.08878"
     inkscape:window-x="1432"
     inkscape:window-y="-8"
     inkscape:window-maximized="1"
     inkscape:current-layer="svg3785" />
  <desc
     id="desc3777" />
  <defs
     id="defs3779" />
  <g
     id="Page-1"
     style="fill:none;fill-rule:evenodd;stroke:none;stroke-width:1"
     transform="scale(50)">
    <g
       id="Icons-AV"
       transform="translate(-42,-85)"
       style="fill:#000000">
      <g
         id="pause-circle-outline"
         transform="translate(42,85)">
        <path
           d="M 7,14 H 9 V 6 H 7 Z M 10,0 C 4.5,0 0,4.5 0,10 0,15.5 4.5,20 10,20 15.5,20 20,15.5 20,10 20,4.5 15.5,0 10,0 Z m 0,18 C 5.6,18 2,14.4 2,10 2,5.6 5.6,2 10,2 c 4.4,0 8,3.6 8,8 0,4.4 -3.6,8 -8,8 z m 1,-4 h 2 V 6 h -2 z"
           id="Shape"
           inkscape:connector-curvature="0" />
      </g>
    </g>
  </g>
</svg>
