<?xml version="1.0" encoding="UTF-8" standalone="no"?>
<svg
   xmlns:dc="http://purl.org/dc/elements/1.1/"
   xmlns:cc="http://creativecommons.org/ns#"
   xmlns:rdf="http://www.w3.org/1999/02/22-rdf-syntax-ns#"
   xmlns:svg="http://www.w3.org/2000/svg"
   xmlns="http://www.w3.org/2000/svg"
   xmlns:sodipodi="http://sodipodi.sourceforge.net/DTD/sodipodi-0.dtd"
   xmlns:inkscape="http://www.inkscape.org/namespaces/inkscape"
   enable-background="new 0 0 512 512"
   height="1000"
   id="Layer_1"
   version="1.1"
   viewBox="0 0 1000 1000"
   width="1000"
   xml:space="preserve"
   sodipodi:docname="sound-off.svg"
   inkscape:version="0.92.3 (2405546, 2018-03-11)"><metadata
     id="metadata3857"><rdf:RDF><cc:Work
         rdf:about=""><dc:format>image/svg+xml</dc:format><dc:type
           rdf:resource="http://purl.org/dc/dcmitype/StillImage" /><dc:title></dc:title></cc:Work></rdf:RDF></metadata><defs
     id="defs3855" /><sodipodi:namedview
     pagecolor="#ffffff"
     bordercolor="#666666"
     borderopacity="1"
     objecttolerance="10"
     gridtolerance="10"
     guidetolerance="10"
     inkscape:pageopacity="0"
     inkscape:pageshadow="2"
     inkscape:window-width="1920"
     inkscape:window-height="1017"
     id="namedview3853"
     showgrid="false"
     inkscape:zoom="0.4609375"
     inkscape:cx="256"
     inkscape:cy="256"
     inkscape:window-x="1432"
     inkscape:window-y="-8"
     inkscape:window-maximized="1"
     inkscape:current-layer="Layer_1" /><path
     d="m 1000,593.21594 -93.29721,93.21497 -93.35981,-93.21497 -93.3598,93.21497 -93.29526,-93.21497 93.29526,-93.21692 -93.29526,-93.21301 93.29526,-93.21496 93.3598,93.21496 93.35981,-93.21496 L 1000,406.78601 906.69888,499.99902 Z M 500.51936,999.74186 250.25968,749.87435 H 62.563942 C 27.982903,749.87435 0,721.93095 0,687.40747 V 312.59644 C 0,278.0671 27.986815,250.12956 62.563942,250.12956 H 250.25968 L 500.51936,0.25814627 c 0,0 62.56394,-7.80860377 62.56394,62.46687773 0,338.935986 0,831.481536 0,874.549956 0,70.27542 -62.56394,62.46688 -62.56394,62.46688 z M 437.95346,250.12761 312.82167,375.06332 H 125.12788 v 249.87141 h 187.69574 l 125.1318,124.93962 V 250.12761 Z"
     id="path3850"
     inkscape:connector-curvature="0"
     style="stroke-width:1.95464432" /></svg>