<?xml version="1.0" encoding="UTF-8" standalone="no"?>
<svg
   xmlns:dc="http://purl.org/dc/elements/1.1/"
   xmlns:cc="http://creativecommons.org/ns#"
   xmlns:rdf="http://www.w3.org/1999/02/22-rdf-syntax-ns#"
   xmlns:svg="http://www.w3.org/2000/svg"
   xmlns="http://www.w3.org/2000/svg"
   xmlns:sodipodi="http://sodipodi.sourceforge.net/DTD/sodipodi-0.dtd"
   xmlns:inkscape="http://www.inkscape.org/namespaces/inkscape"
   enable-background="new 0 0 512 512"
   height="1000"
   id="Layer_1"
   version="1.1"
   viewBox="0 0 1000 1000"
   width="1000"
   xml:space="preserve"
   sodipodi:docname="sound-on.svg"
   inkscape:version="0.92.3 (2405546, 2018-03-11)"><metadata
     id="metadata3839"><rdf:RDF><cc:Work
         rdf:about=""><dc:format>image/svg+xml</dc:format><dc:type
           rdf:resource="http://purl.org/dc/dcmitype/StillImage" /><dc:title></dc:title></cc:Work></rdf:RDF></metadata><defs
     id="defs3837" /><sodipodi:namedview
     pagecolor="#ffffff"
     bordercolor="#666666"
     borderopacity="1"
     objecttolerance="10"
     gridtolerance="10"
     guidetolerance="10"
     inkscape:pageopacity="0"
     inkscape:pageshadow="2"
     inkscape:window-width="1920"
     inkscape:window-height="1017"
     id="namedview3835"
     showgrid="false"
     inkscape:zoom="0.4609375"
     inkscape:cx="256"
     inkscape:cy="256"
     inkscape:window-x="1432"
     inkscape:window-y="-8"
     inkscape:window-maximized="1"
     inkscape:current-layer="Layer_1" /><path
     d="m 625.00049,983.39239 v -131.5236 c 145.3255,-51.6114 249.99902,-188.86743 249.99902,-351.8696 0,-162.94161 -104.67157,-300.25819 -250.00098,-351.86763 V 16.605996 C 840.51675,72.240833 1000,267.20983 1000,499.99919 1000,732.78856 840.51675,927.8181 625.00049,983.39239 Z M 500,999.74202 249.99902,749.87452 H 62.499267 C 27.952022,749.87452 0,721.93112 0,687.40764 V 312.59661 C 0,278.06727 27.95593,250.12973 62.499267,250.12973 H 249.99902 L 500,0.2583187 c 0,0 62.49731,-7.8086038 62.49731,62.4668773 0,142.381044 0,746.198224 0,874.549954 C 562.49931,1007.5506 500,999.74202 500,999.74202 Z M 437.50073,250.12778 312.50024,375.06349 H 124.99853 V 624.9349 h 187.50171 l 125.00049,124.93962 z m 374.99756,249.87141 c 0,116.27359 -79.83445,213.14872 -187.4978,241.02375 V 607.60675 c 37.23223,-21.65432 62.49731,-61.48836 62.49731,-107.60951 0,-46.11725 -25.26899,-85.95323 -62.49731,-107.61146 V 258.97154 c 107.66531,27.8809 187.4978,124.75602 187.4978,241.02765 z"
     id="path3832"
     inkscape:connector-curvature="0"
     style="stroke-width:1.9536339" /></svg>